<svg xmlns="http://www.w3.org/2000/svg" width="1920" height="1080" viewBox="0 0 1920 1080">
  <defs>
    <radialGradient id="g1" cx="56.7%" cy="33.6%" r="40%">
      <stop offset="0%" stop-color="#C8F04A" stop-opacity="0.111"/>
      <stop offset="100%" stop-color="#0C0C0E" stop-opacity="0"/>
    </radialGradient>
    <radialGradient id="g2" cx="41.1%" cy="56.2%" r="35%">
      <stop offset="0%" stop-color="#C8F04A" stop-opacity="0.055"/>
      <stop offset="100%" stop-color="#0C0C0E" stop-opacity="0"/>
    </radialGradient>
  </defs>
  <rect width="1920" height="1080" fill="#0C0C0E"/>
  <rect width="1920" height="1080" fill="url(#g1)"/>
  <rect width="1920" height="1080" fill="url(#g2)"/>
  <line x1="0" y1="64" x2="1920" y2="64" stroke="#C8F04A" stroke-opacity="0.058" stroke-width="0.5"/><line x1="0" y1="118" x2="1920" y2="118" stroke="#C8F04A" stroke-opacity="0.058" stroke-width="0.5"/><line x1="0" y1="172" x2="1920" y2="172" stroke="#C8F04A" stroke-opacity="0.058" stroke-width="0.5"/><line x1="0" y1="226" x2="1920" y2="226" stroke="#C8F04A" stroke-opacity="0.058" stroke-width="0.5"/><line x1="0" y1="280" x2="1920" y2="280" stroke="#C8F04A" stroke-opacity="0.058" stroke-width="0.5"/><line x1="0" y1="334" x2="1920" y2="334" stroke="#C8F04A" stroke-opacity="0.058" stroke-width="0.5"/><line x1="0" y1="388" x2="1920" y2="388" stroke="#C8F04A" stroke-opacity="0.058" stroke-width="0.5"/><line x1="0" y1="442" x2="1920" y2="442" stroke="#C8F04A" stroke-opacity="0.058" stroke-width="0.5"/><line x1="0" y1="496" x2="1920" y2="496" stroke="#C8F04A" stroke-opacity="0.058" stroke-width="0.5"/><line x1="0" y1="550" x2="1920" y2="550" stroke="#C8F04A" stroke-opacity="0.058" stroke-width="0.5"/><line x1="0" y1="604" x2="1920" y2="604" stroke="#C8F04A" stroke-opacity="0.058" stroke-width="0.5"/><line x1="0" y1="658" x2="1920" y2="658" stroke="#C8F04A" stroke-opacity="0.058" stroke-width="0.5"/><line x1="0" y1="712" x2="1920" y2="712" stroke="#C8F04A" stroke-opacity="0.058" stroke-width="0.5"/><line x1="0" y1="766" x2="1920" y2="766" stroke="#C8F04A" stroke-opacity="0.058" stroke-width="0.5"/><line x1="0" y1="820" x2="1920" y2="820" stroke="#C8F04A" stroke-opacity="0.058" stroke-width="0.5"/><line x1="0" y1="874" x2="1920" y2="874" stroke="#C8F04A" stroke-opacity="0.058" stroke-width="0.5"/><line x1="0" y1="928" x2="1920" y2="928" stroke="#C8F04A" stroke-opacity="0.058" stroke-width="0.5"/><line x1="0" y1="982" x2="1920" y2="982" stroke="#C8F04A" stroke-opacity="0.058" stroke-width="0.5"/><line x1="0" y1="1036" x2="1920" y2="1036" stroke="#C8F04A" stroke-opacity="0.058" stroke-width="0.5"/><line x1="0" y1="1090" x2="1920" y2="1090" stroke="#C8F04A" stroke-opacity="0.058" stroke-width="0.5"/>
  <line x1="57" y1="0" x2="57" y2="1080" stroke="#C8F04A" stroke-opacity="0.035" stroke-width="0.5"/><line x1="185" y1="0" x2="185" y2="1080" stroke="#C8F04A" stroke-opacity="0.035" stroke-width="0.5"/><line x1="313" y1="0" x2="313" y2="1080" stroke="#C8F04A" stroke-opacity="0.035" stroke-width="0.5"/><line x1="441" y1="0" x2="441" y2="1080" stroke="#C8F04A" stroke-opacity="0.035" stroke-width="0.5"/><line x1="569" y1="0" x2="569" y2="1080" stroke="#C8F04A" stroke-opacity="0.035" stroke-width="0.5"/><line x1="697" y1="0" x2="697" y2="1080" stroke="#C8F04A" stroke-opacity="0.035" stroke-width="0.5"/><line x1="825" y1="0" x2="825" y2="1080" stroke="#C8F04A" stroke-opacity="0.035" stroke-width="0.5"/><line x1="953" y1="0" x2="953" y2="1080" stroke="#C8F04A" stroke-opacity="0.035" stroke-width="0.5"/><line x1="1081" y1="0" x2="1081" y2="1080" stroke="#C8F04A" stroke-opacity="0.035" stroke-width="0.5"/><line x1="1209" y1="0" x2="1209" y2="1080" stroke="#C8F04A" stroke-opacity="0.035" stroke-width="0.5"/><line x1="1337" y1="0" x2="1337" y2="1080" stroke="#C8F04A" stroke-opacity="0.035" stroke-width="0.5"/><line x1="1465" y1="0" x2="1465" y2="1080" stroke="#C8F04A" stroke-opacity="0.035" stroke-width="0.5"/><line x1="1593" y1="0" x2="1593" y2="1080" stroke="#C8F04A" stroke-opacity="0.035" stroke-width="0.5"/><line x1="1721" y1="0" x2="1721" y2="1080" stroke="#C8F04A" stroke-opacity="0.035" stroke-width="0.5"/><line x1="1849" y1="0" x2="1849" y2="1080" stroke="#C8F04A" stroke-opacity="0.035" stroke-width="0.5"/>
  <circle cx="641" cy="242" r="167" fill="none" stroke="#C8F04A" stroke-opacity="0.089" stroke-width="1"/>
  <circle cx="1279" cy="838" r="354" fill="none" stroke="#C8F04A" stroke-opacity="0.055" stroke-width="0.5"/>
</svg>