<svg xmlns="http://www.w3.org/2000/svg" width="1920" height="1080" viewBox="0 0 1920 1080">
  <defs>
    <radialGradient id="g1" cx="38.6%" cy="63.8%" r="40%">
      <stop offset="0%" stop-color="#C8F04A" stop-opacity="0.120"/>
      <stop offset="100%" stop-color="#0C0C0E" stop-opacity="0"/>
    </radialGradient>
    <radialGradient id="g2" cx="65.2%" cy="41.6%" r="35%">
      <stop offset="0%" stop-color="#C8F04A" stop-opacity="0.060"/>
      <stop offset="100%" stop-color="#0C0C0E" stop-opacity="0"/>
    </radialGradient>
  </defs>
  <rect width="1920" height="1080" fill="#0C0C0E"/>
  <rect width="1920" height="1080" fill="url(#g1)"/>
  <rect width="1920" height="1080" fill="url(#g2)"/>
  <line x1="0" y1="87" x2="1920" y2="87" stroke="#C8F04A" stroke-opacity="0.064" stroke-width="0.5"/><line x1="0" y1="141" x2="1920" y2="141" stroke="#C8F04A" stroke-opacity="0.064" stroke-width="0.5"/><line x1="0" y1="195" x2="1920" y2="195" stroke="#C8F04A" stroke-opacity="0.064" stroke-width="0.5"/><line x1="0" y1="249" x2="1920" y2="249" stroke="#C8F04A" stroke-opacity="0.064" stroke-width="0.5"/><line x1="0" y1="303" x2="1920" y2="303" stroke="#C8F04A" stroke-opacity="0.064" stroke-width="0.5"/><line x1="0" y1="357" x2="1920" y2="357" stroke="#C8F04A" stroke-opacity="0.064" stroke-width="0.5"/><line x1="0" y1="411" x2="1920" y2="411" stroke="#C8F04A" stroke-opacity="0.064" stroke-width="0.5"/><line x1="0" y1="465" x2="1920" y2="465" stroke="#C8F04A" stroke-opacity="0.064" stroke-width="0.5"/><line x1="0" y1="519" x2="1920" y2="519" stroke="#C8F04A" stroke-opacity="0.064" stroke-width="0.5"/><line x1="0" y1="573" x2="1920" y2="573" stroke="#C8F04A" stroke-opacity="0.064" stroke-width="0.5"/><line x1="0" y1="627" x2="1920" y2="627" stroke="#C8F04A" stroke-opacity="0.064" stroke-width="0.5"/><line x1="0" y1="681" x2="1920" y2="681" stroke="#C8F04A" stroke-opacity="0.064" stroke-width="0.5"/><line x1="0" y1="735" x2="1920" y2="735" stroke="#C8F04A" stroke-opacity="0.064" stroke-width="0.5"/><line x1="0" y1="789" x2="1920" y2="789" stroke="#C8F04A" stroke-opacity="0.064" stroke-width="0.5"/><line x1="0" y1="843" x2="1920" y2="843" stroke="#C8F04A" stroke-opacity="0.064" stroke-width="0.5"/><line x1="0" y1="897" x2="1920" y2="897" stroke="#C8F04A" stroke-opacity="0.064" stroke-width="0.5"/><line x1="0" y1="951" x2="1920" y2="951" stroke="#C8F04A" stroke-opacity="0.064" stroke-width="0.5"/><line x1="0" y1="1005" x2="1920" y2="1005" stroke="#C8F04A" stroke-opacity="0.064" stroke-width="0.5"/><line x1="0" y1="1059" x2="1920" y2="1059" stroke="#C8F04A" stroke-opacity="0.064" stroke-width="0.5"/><line x1="0" y1="1113" x2="1920" y2="1113" stroke="#C8F04A" stroke-opacity="0.064" stroke-width="0.5"/>
  <line x1="78" y1="0" x2="78" y2="1080" stroke="#C8F04A" stroke-opacity="0.039" stroke-width="0.5"/><line x1="206" y1="0" x2="206" y2="1080" stroke="#C8F04A" stroke-opacity="0.039" stroke-width="0.5"/><line x1="334" y1="0" x2="334" y2="1080" stroke="#C8F04A" stroke-opacity="0.039" stroke-width="0.5"/><line x1="462" y1="0" x2="462" y2="1080" stroke="#C8F04A" stroke-opacity="0.039" stroke-width="0.5"/><line x1="590" y1="0" x2="590" y2="1080" stroke="#C8F04A" stroke-opacity="0.039" stroke-width="0.5"/><line x1="718" y1="0" x2="718" y2="1080" stroke="#C8F04A" stroke-opacity="0.039" stroke-width="0.5"/><line x1="846" y1="0" x2="846" y2="1080" stroke="#C8F04A" stroke-opacity="0.039" stroke-width="0.5"/><line x1="974" y1="0" x2="974" y2="1080" stroke="#C8F04A" stroke-opacity="0.039" stroke-width="0.5"/><line x1="1102" y1="0" x2="1102" y2="1080" stroke="#C8F04A" stroke-opacity="0.039" stroke-width="0.5"/><line x1="1230" y1="0" x2="1230" y2="1080" stroke="#C8F04A" stroke-opacity="0.039" stroke-width="0.5"/><line x1="1358" y1="0" x2="1358" y2="1080" stroke="#C8F04A" stroke-opacity="0.039" stroke-width="0.5"/><line x1="1486" y1="0" x2="1486" y2="1080" stroke="#C8F04A" stroke-opacity="0.039" stroke-width="0.5"/><line x1="1614" y1="0" x2="1614" y2="1080" stroke="#C8F04A" stroke-opacity="0.039" stroke-width="0.5"/><line x1="1742" y1="0" x2="1742" y2="1080" stroke="#C8F04A" stroke-opacity="0.039" stroke-width="0.5"/><line x1="1870" y1="0" x2="1870" y2="1080" stroke="#C8F04A" stroke-opacity="0.039" stroke-width="0.5"/>
  <circle cx="991" cy="668" r="217" fill="none" stroke="#C8F04A" stroke-opacity="0.096" stroke-width="1"/>
  <circle cx="929" cy="412" r="203" fill="none" stroke="#C8F04A" stroke-opacity="0.060" stroke-width="0.5"/>
</svg>