<svg xmlns="http://www.w3.org/2000/svg" width="1920" height="1080" viewBox="0 0 1920 1080">
  <defs>
    <radialGradient id="g1" cx="61.4%" cy="59.3%" r="40%">
      <stop offset="0%" stop-color="#C8F04A" stop-opacity="0.120"/>
      <stop offset="100%" stop-color="#0C0C0E" stop-opacity="0"/>
    </radialGradient>
    <radialGradient id="g2" cx="34.8%" cy="72.4%" r="35%">
      <stop offset="0%" stop-color="#C8F04A" stop-opacity="0.060"/>
      <stop offset="100%" stop-color="#0C0C0E" stop-opacity="0"/>
    </radialGradient>
  </defs>
  <rect width="1920" height="1080" fill="#0C0C0E"/>
  <rect width="1920" height="1080" fill="url(#g1)"/>
  <rect width="1920" height="1080" fill="url(#g2)"/>
  <line x1="0" y1="6" x2="1920" y2="6" stroke="#C8F04A" stroke-opacity="0.042" stroke-width="0.5"/><line x1="0" y1="60" x2="1920" y2="60" stroke="#C8F04A" stroke-opacity="0.042" stroke-width="0.5"/><line x1="0" y1="114" x2="1920" y2="114" stroke="#C8F04A" stroke-opacity="0.042" stroke-width="0.5"/><line x1="0" y1="168" x2="1920" y2="168" stroke="#C8F04A" stroke-opacity="0.042" stroke-width="0.5"/><line x1="0" y1="222" x2="1920" y2="222" stroke="#C8F04A" stroke-opacity="0.042" stroke-width="0.5"/><line x1="0" y1="276" x2="1920" y2="276" stroke="#C8F04A" stroke-opacity="0.042" stroke-width="0.5"/><line x1="0" y1="330" x2="1920" y2="330" stroke="#C8F04A" stroke-opacity="0.042" stroke-width="0.5"/><line x1="0" y1="384" x2="1920" y2="384" stroke="#C8F04A" stroke-opacity="0.042" stroke-width="0.5"/><line x1="0" y1="438" x2="1920" y2="438" stroke="#C8F04A" stroke-opacity="0.042" stroke-width="0.5"/><line x1="0" y1="492" x2="1920" y2="492" stroke="#C8F04A" stroke-opacity="0.042" stroke-width="0.5"/><line x1="0" y1="546" x2="1920" y2="546" stroke="#C8F04A" stroke-opacity="0.042" stroke-width="0.5"/><line x1="0" y1="600" x2="1920" y2="600" stroke="#C8F04A" stroke-opacity="0.042" stroke-width="0.5"/><line x1="0" y1="654" x2="1920" y2="654" stroke="#C8F04A" stroke-opacity="0.042" stroke-width="0.5"/><line x1="0" y1="708" x2="1920" y2="708" stroke="#C8F04A" stroke-opacity="0.042" stroke-width="0.5"/><line x1="0" y1="762" x2="1920" y2="762" stroke="#C8F04A" stroke-opacity="0.042" stroke-width="0.5"/><line x1="0" y1="816" x2="1920" y2="816" stroke="#C8F04A" stroke-opacity="0.042" stroke-width="0.5"/><line x1="0" y1="870" x2="1920" y2="870" stroke="#C8F04A" stroke-opacity="0.042" stroke-width="0.5"/><line x1="0" y1="924" x2="1920" y2="924" stroke="#C8F04A" stroke-opacity="0.042" stroke-width="0.5"/><line x1="0" y1="978" x2="1920" y2="978" stroke="#C8F04A" stroke-opacity="0.042" stroke-width="0.5"/><line x1="0" y1="1032" x2="1920" y2="1032" stroke="#C8F04A" stroke-opacity="0.042" stroke-width="0.5"/>
  <line x1="6" y1="0" x2="6" y2="1080" stroke="#C8F04A" stroke-opacity="0.025" stroke-width="0.5"/><line x1="134" y1="0" x2="134" y2="1080" stroke="#C8F04A" stroke-opacity="0.025" stroke-width="0.5"/><line x1="262" y1="0" x2="262" y2="1080" stroke="#C8F04A" stroke-opacity="0.025" stroke-width="0.5"/><line x1="390" y1="0" x2="390" y2="1080" stroke="#C8F04A" stroke-opacity="0.025" stroke-width="0.5"/><line x1="518" y1="0" x2="518" y2="1080" stroke="#C8F04A" stroke-opacity="0.025" stroke-width="0.5"/><line x1="646" y1="0" x2="646" y2="1080" stroke="#C8F04A" stroke-opacity="0.025" stroke-width="0.5"/><line x1="774" y1="0" x2="774" y2="1080" stroke="#C8F04A" stroke-opacity="0.025" stroke-width="0.5"/><line x1="902" y1="0" x2="902" y2="1080" stroke="#C8F04A" stroke-opacity="0.025" stroke-width="0.5"/><line x1="1030" y1="0" x2="1030" y2="1080" stroke="#C8F04A" stroke-opacity="0.025" stroke-width="0.5"/><line x1="1158" y1="0" x2="1158" y2="1080" stroke="#C8F04A" stroke-opacity="0.025" stroke-width="0.5"/><line x1="1286" y1="0" x2="1286" y2="1080" stroke="#C8F04A" stroke-opacity="0.025" stroke-width="0.5"/><line x1="1414" y1="0" x2="1414" y2="1080" stroke="#C8F04A" stroke-opacity="0.025" stroke-width="0.5"/><line x1="1542" y1="0" x2="1542" y2="1080" stroke="#C8F04A" stroke-opacity="0.025" stroke-width="0.5"/><line x1="1670" y1="0" x2="1670" y2="1080" stroke="#C8F04A" stroke-opacity="0.025" stroke-width="0.5"/><line x1="1798" y1="0" x2="1798" y2="1080" stroke="#C8F04A" stroke-opacity="0.025" stroke-width="0.5"/>
  <circle cx="991" cy="811" r="230" fill="none" stroke="#C8F04A" stroke-opacity="0.096" stroke-width="1"/>
  <circle cx="929" cy="269" r="342" fill="none" stroke="#C8F04A" stroke-opacity="0.060" stroke-width="0.5"/>
</svg>