<svg xmlns="http://www.w3.org/2000/svg" width="1920" height="1080" viewBox="0 0 1920 1080">
  <defs>
    <radialGradient id="g1" cx="63.7%" cy="31.5%" r="40%">
      <stop offset="0%" stop-color="#C8F04A" stop-opacity="0.114"/>
      <stop offset="100%" stop-color="#0C0C0E" stop-opacity="0"/>
    </radialGradient>
    <radialGradient id="g2" cx="31.7%" cy="69.0%" r="35%">
      <stop offset="0%" stop-color="#C8F04A" stop-opacity="0.057"/>
      <stop offset="100%" stop-color="#0C0C0E" stop-opacity="0"/>
    </radialGradient>
  </defs>
  <rect width="1920" height="1080" fill="#0C0C0E"/>
  <rect width="1920" height="1080" fill="url(#g1)"/>
  <rect width="1920" height="1080" fill="url(#g2)"/>
  <line x1="0" y1="58" x2="1920" y2="58" stroke="#C8F04A" stroke-opacity="0.056" stroke-width="0.5"/><line x1="0" y1="112" x2="1920" y2="112" stroke="#C8F04A" stroke-opacity="0.056" stroke-width="0.5"/><line x1="0" y1="166" x2="1920" y2="166" stroke="#C8F04A" stroke-opacity="0.056" stroke-width="0.5"/><line x1="0" y1="220" x2="1920" y2="220" stroke="#C8F04A" stroke-opacity="0.056" stroke-width="0.5"/><line x1="0" y1="274" x2="1920" y2="274" stroke="#C8F04A" stroke-opacity="0.056" stroke-width="0.5"/><line x1="0" y1="328" x2="1920" y2="328" stroke="#C8F04A" stroke-opacity="0.056" stroke-width="0.5"/><line x1="0" y1="382" x2="1920" y2="382" stroke="#C8F04A" stroke-opacity="0.056" stroke-width="0.5"/><line x1="0" y1="436" x2="1920" y2="436" stroke="#C8F04A" stroke-opacity="0.056" stroke-width="0.5"/><line x1="0" y1="490" x2="1920" y2="490" stroke="#C8F04A" stroke-opacity="0.056" stroke-width="0.5"/><line x1="0" y1="544" x2="1920" y2="544" stroke="#C8F04A" stroke-opacity="0.056" stroke-width="0.5"/><line x1="0" y1="598" x2="1920" y2="598" stroke="#C8F04A" stroke-opacity="0.056" stroke-width="0.5"/><line x1="0" y1="652" x2="1920" y2="652" stroke="#C8F04A" stroke-opacity="0.056" stroke-width="0.5"/><line x1="0" y1="706" x2="1920" y2="706" stroke="#C8F04A" stroke-opacity="0.056" stroke-width="0.5"/><line x1="0" y1="760" x2="1920" y2="760" stroke="#C8F04A" stroke-opacity="0.056" stroke-width="0.5"/><line x1="0" y1="814" x2="1920" y2="814" stroke="#C8F04A" stroke-opacity="0.056" stroke-width="0.5"/><line x1="0" y1="868" x2="1920" y2="868" stroke="#C8F04A" stroke-opacity="0.056" stroke-width="0.5"/><line x1="0" y1="922" x2="1920" y2="922" stroke="#C8F04A" stroke-opacity="0.056" stroke-width="0.5"/><line x1="0" y1="976" x2="1920" y2="976" stroke="#C8F04A" stroke-opacity="0.056" stroke-width="0.5"/><line x1="0" y1="1030" x2="1920" y2="1030" stroke="#C8F04A" stroke-opacity="0.056" stroke-width="0.5"/><line x1="0" y1="1084" x2="1920" y2="1084" stroke="#C8F04A" stroke-opacity="0.056" stroke-width="0.5"/>
  <line x1="52" y1="0" x2="52" y2="1080" stroke="#C8F04A" stroke-opacity="0.034" stroke-width="0.5"/><line x1="180" y1="0" x2="180" y2="1080" stroke="#C8F04A" stroke-opacity="0.034" stroke-width="0.5"/><line x1="308" y1="0" x2="308" y2="1080" stroke="#C8F04A" stroke-opacity="0.034" stroke-width="0.5"/><line x1="436" y1="0" x2="436" y2="1080" stroke="#C8F04A" stroke-opacity="0.034" stroke-width="0.5"/><line x1="564" y1="0" x2="564" y2="1080" stroke="#C8F04A" stroke-opacity="0.034" stroke-width="0.5"/><line x1="692" y1="0" x2="692" y2="1080" stroke="#C8F04A" stroke-opacity="0.034" stroke-width="0.5"/><line x1="820" y1="0" x2="820" y2="1080" stroke="#C8F04A" stroke-opacity="0.034" stroke-width="0.5"/><line x1="948" y1="0" x2="948" y2="1080" stroke="#C8F04A" stroke-opacity="0.034" stroke-width="0.5"/><line x1="1076" y1="0" x2="1076" y2="1080" stroke="#C8F04A" stroke-opacity="0.034" stroke-width="0.5"/><line x1="1204" y1="0" x2="1204" y2="1080" stroke="#C8F04A" stroke-opacity="0.034" stroke-width="0.5"/><line x1="1332" y1="0" x2="1332" y2="1080" stroke="#C8F04A" stroke-opacity="0.034" stroke-width="0.5"/><line x1="1460" y1="0" x2="1460" y2="1080" stroke="#C8F04A" stroke-opacity="0.034" stroke-width="0.5"/><line x1="1588" y1="0" x2="1588" y2="1080" stroke="#C8F04A" stroke-opacity="0.034" stroke-width="0.5"/><line x1="1716" y1="0" x2="1716" y2="1080" stroke="#C8F04A" stroke-opacity="0.034" stroke-width="0.5"/><line x1="1844" y1="0" x2="1844" y2="1080" stroke="#C8F04A" stroke-opacity="0.034" stroke-width="0.5"/>
  <circle cx="1228" cy="335" r="214" fill="none" stroke="#C8F04A" stroke-opacity="0.091" stroke-width="1"/>
  <circle cx="692" cy="745" r="359" fill="none" stroke="#C8F04A" stroke-opacity="0.057" stroke-width="0.5"/>
</svg>