<svg xmlns="http://www.w3.org/2000/svg" width="1920" height="1080" viewBox="0 0 1920 1080">
  <defs>
    <radialGradient id="g1" cx="34.4%" cy="55.7%" r="40%">
      <stop offset="0%" stop-color="#C8F04A" stop-opacity="0.080"/>
      <stop offset="100%" stop-color="#0C0C0E" stop-opacity="0"/>
    </radialGradient>
    <radialGradient id="g2" cx="70.8%" cy="28.4%" r="35%">
      <stop offset="0%" stop-color="#C8F04A" stop-opacity="0.040"/>
      <stop offset="100%" stop-color="#0C0C0E" stop-opacity="0"/>
    </radialGradient>
  </defs>
  <rect width="1920" height="1080" fill="#0C0C0E"/>
  <rect width="1920" height="1080" fill="url(#g1)"/>
  <rect width="1920" height="1080" fill="url(#g2)"/>
  <line x1="0" y1="81" x2="1920" y2="81" stroke="#C8F04A" stroke-opacity="0.063" stroke-width="0.5"/><line x1="0" y1="135" x2="1920" y2="135" stroke="#C8F04A" stroke-opacity="0.063" stroke-width="0.5"/><line x1="0" y1="189" x2="1920" y2="189" stroke="#C8F04A" stroke-opacity="0.063" stroke-width="0.5"/><line x1="0" y1="243" x2="1920" y2="243" stroke="#C8F04A" stroke-opacity="0.063" stroke-width="0.5"/><line x1="0" y1="297" x2="1920" y2="297" stroke="#C8F04A" stroke-opacity="0.063" stroke-width="0.5"/><line x1="0" y1="351" x2="1920" y2="351" stroke="#C8F04A" stroke-opacity="0.063" stroke-width="0.5"/><line x1="0" y1="405" x2="1920" y2="405" stroke="#C8F04A" stroke-opacity="0.063" stroke-width="0.5"/><line x1="0" y1="459" x2="1920" y2="459" stroke="#C8F04A" stroke-opacity="0.063" stroke-width="0.5"/><line x1="0" y1="513" x2="1920" y2="513" stroke="#C8F04A" stroke-opacity="0.063" stroke-width="0.5"/><line x1="0" y1="567" x2="1920" y2="567" stroke="#C8F04A" stroke-opacity="0.063" stroke-width="0.5"/><line x1="0" y1="621" x2="1920" y2="621" stroke="#C8F04A" stroke-opacity="0.063" stroke-width="0.5"/><line x1="0" y1="675" x2="1920" y2="675" stroke="#C8F04A" stroke-opacity="0.063" stroke-width="0.5"/><line x1="0" y1="729" x2="1920" y2="729" stroke="#C8F04A" stroke-opacity="0.063" stroke-width="0.5"/><line x1="0" y1="783" x2="1920" y2="783" stroke="#C8F04A" stroke-opacity="0.063" stroke-width="0.5"/><line x1="0" y1="837" x2="1920" y2="837" stroke="#C8F04A" stroke-opacity="0.063" stroke-width="0.5"/><line x1="0" y1="891" x2="1920" y2="891" stroke="#C8F04A" stroke-opacity="0.063" stroke-width="0.5"/><line x1="0" y1="945" x2="1920" y2="945" stroke="#C8F04A" stroke-opacity="0.063" stroke-width="0.5"/><line x1="0" y1="999" x2="1920" y2="999" stroke="#C8F04A" stroke-opacity="0.063" stroke-width="0.5"/><line x1="0" y1="1053" x2="1920" y2="1053" stroke="#C8F04A" stroke-opacity="0.063" stroke-width="0.5"/><line x1="0" y1="1107" x2="1920" y2="1107" stroke="#C8F04A" stroke-opacity="0.063" stroke-width="0.5"/>
  <line x1="72" y1="0" x2="72" y2="1080" stroke="#C8F04A" stroke-opacity="0.037" stroke-width="0.5"/><line x1="200" y1="0" x2="200" y2="1080" stroke="#C8F04A" stroke-opacity="0.037" stroke-width="0.5"/><line x1="328" y1="0" x2="328" y2="1080" stroke="#C8F04A" stroke-opacity="0.037" stroke-width="0.5"/><line x1="456" y1="0" x2="456" y2="1080" stroke="#C8F04A" stroke-opacity="0.037" stroke-width="0.5"/><line x1="584" y1="0" x2="584" y2="1080" stroke="#C8F04A" stroke-opacity="0.037" stroke-width="0.5"/><line x1="712" y1="0" x2="712" y2="1080" stroke="#C8F04A" stroke-opacity="0.037" stroke-width="0.5"/><line x1="840" y1="0" x2="840" y2="1080" stroke="#C8F04A" stroke-opacity="0.037" stroke-width="0.5"/><line x1="968" y1="0" x2="968" y2="1080" stroke="#C8F04A" stroke-opacity="0.037" stroke-width="0.5"/><line x1="1096" y1="0" x2="1096" y2="1080" stroke="#C8F04A" stroke-opacity="0.037" stroke-width="0.5"/><line x1="1224" y1="0" x2="1224" y2="1080" stroke="#C8F04A" stroke-opacity="0.037" stroke-width="0.5"/><line x1="1352" y1="0" x2="1352" y2="1080" stroke="#C8F04A" stroke-opacity="0.037" stroke-width="0.5"/><line x1="1480" y1="0" x2="1480" y2="1080" stroke="#C8F04A" stroke-opacity="0.037" stroke-width="0.5"/><line x1="1608" y1="0" x2="1608" y2="1080" stroke="#C8F04A" stroke-opacity="0.037" stroke-width="0.5"/><line x1="1736" y1="0" x2="1736" y2="1080" stroke="#C8F04A" stroke-opacity="0.037" stroke-width="0.5"/><line x1="1864" y1="0" x2="1864" y2="1080" stroke="#C8F04A" stroke-opacity="0.037" stroke-width="0.5"/>
  <circle cx="1460" cy="840" r="161" fill="none" stroke="#C8F04A" stroke-opacity="0.064" stroke-width="1"/>
  <circle cx="460" cy="240" r="233" fill="none" stroke="#C8F04A" stroke-opacity="0.040" stroke-width="0.5"/>
</svg>