<svg xmlns="http://www.w3.org/2000/svg" width="1920" height="1080" viewBox="0 0 1920 1080">
  <defs>
    <radialGradient id="g1" cx="41.6%" cy="68.5%" r="40%">
      <stop offset="0%" stop-color="#C8F04A" stop-opacity="0.044"/>
      <stop offset="100%" stop-color="#0C0C0E" stop-opacity="0"/>
    </radialGradient>
    <radialGradient id="g2" cx="61.2%" cy="45.2%" r="35%">
      <stop offset="0%" stop-color="#C8F04A" stop-opacity="0.022"/>
      <stop offset="100%" stop-color="#0C0C0E" stop-opacity="0"/>
    </radialGradient>
  </defs>
  <rect width="1920" height="1080" fill="#0C0C0E"/>
  <rect width="1920" height="1080" fill="url(#g1)"/>
  <rect width="1920" height="1080" fill="url(#g2)"/>
  <line x1="0" y1="18" x2="1920" y2="18" stroke="#C8F04A" stroke-opacity="0.045" stroke-width="0.5"/><line x1="0" y1="72" x2="1920" y2="72" stroke="#C8F04A" stroke-opacity="0.045" stroke-width="0.5"/><line x1="0" y1="126" x2="1920" y2="126" stroke="#C8F04A" stroke-opacity="0.045" stroke-width="0.5"/><line x1="0" y1="180" x2="1920" y2="180" stroke="#C8F04A" stroke-opacity="0.045" stroke-width="0.5"/><line x1="0" y1="234" x2="1920" y2="234" stroke="#C8F04A" stroke-opacity="0.045" stroke-width="0.5"/><line x1="0" y1="288" x2="1920" y2="288" stroke="#C8F04A" stroke-opacity="0.045" stroke-width="0.5"/><line x1="0" y1="342" x2="1920" y2="342" stroke="#C8F04A" stroke-opacity="0.045" stroke-width="0.5"/><line x1="0" y1="396" x2="1920" y2="396" stroke="#C8F04A" stroke-opacity="0.045" stroke-width="0.5"/><line x1="0" y1="450" x2="1920" y2="450" stroke="#C8F04A" stroke-opacity="0.045" stroke-width="0.5"/><line x1="0" y1="504" x2="1920" y2="504" stroke="#C8F04A" stroke-opacity="0.045" stroke-width="0.5"/><line x1="0" y1="558" x2="1920" y2="558" stroke="#C8F04A" stroke-opacity="0.045" stroke-width="0.5"/><line x1="0" y1="612" x2="1920" y2="612" stroke="#C8F04A" stroke-opacity="0.045" stroke-width="0.5"/><line x1="0" y1="666" x2="1920" y2="666" stroke="#C8F04A" stroke-opacity="0.045" stroke-width="0.5"/><line x1="0" y1="720" x2="1920" y2="720" stroke="#C8F04A" stroke-opacity="0.045" stroke-width="0.5"/><line x1="0" y1="774" x2="1920" y2="774" stroke="#C8F04A" stroke-opacity="0.045" stroke-width="0.5"/><line x1="0" y1="828" x2="1920" y2="828" stroke="#C8F04A" stroke-opacity="0.045" stroke-width="0.5"/><line x1="0" y1="882" x2="1920" y2="882" stroke="#C8F04A" stroke-opacity="0.045" stroke-width="0.5"/><line x1="0" y1="936" x2="1920" y2="936" stroke="#C8F04A" stroke-opacity="0.045" stroke-width="0.5"/><line x1="0" y1="990" x2="1920" y2="990" stroke="#C8F04A" stroke-opacity="0.045" stroke-width="0.5"/><line x1="0" y1="1044" x2="1920" y2="1044" stroke="#C8F04A" stroke-opacity="0.045" stroke-width="0.5"/>
  <line x1="16" y1="0" x2="16" y2="1080" stroke="#C8F04A" stroke-opacity="0.027" stroke-width="0.5"/><line x1="144" y1="0" x2="144" y2="1080" stroke="#C8F04A" stroke-opacity="0.027" stroke-width="0.5"/><line x1="272" y1="0" x2="272" y2="1080" stroke="#C8F04A" stroke-opacity="0.027" stroke-width="0.5"/><line x1="400" y1="0" x2="400" y2="1080" stroke="#C8F04A" stroke-opacity="0.027" stroke-width="0.5"/><line x1="528" y1="0" x2="528" y2="1080" stroke="#C8F04A" stroke-opacity="0.027" stroke-width="0.5"/><line x1="656" y1="0" x2="656" y2="1080" stroke="#C8F04A" stroke-opacity="0.027" stroke-width="0.5"/><line x1="784" y1="0" x2="784" y2="1080" stroke="#C8F04A" stroke-opacity="0.027" stroke-width="0.5"/><line x1="912" y1="0" x2="912" y2="1080" stroke="#C8F04A" stroke-opacity="0.027" stroke-width="0.5"/><line x1="1040" y1="0" x2="1040" y2="1080" stroke="#C8F04A" stroke-opacity="0.027" stroke-width="0.5"/><line x1="1168" y1="0" x2="1168" y2="1080" stroke="#C8F04A" stroke-opacity="0.027" stroke-width="0.5"/><line x1="1296" y1="0" x2="1296" y2="1080" stroke="#C8F04A" stroke-opacity="0.027" stroke-width="0.5"/><line x1="1424" y1="0" x2="1424" y2="1080" stroke="#C8F04A" stroke-opacity="0.027" stroke-width="0.5"/><line x1="1552" y1="0" x2="1552" y2="1080" stroke="#C8F04A" stroke-opacity="0.027" stroke-width="0.5"/><line x1="1680" y1="0" x2="1680" y2="1080" stroke="#C8F04A" stroke-opacity="0.027" stroke-width="0.5"/><line x1="1808" y1="0" x2="1808" y2="1080" stroke="#C8F04A" stroke-opacity="0.027" stroke-width="0.5"/>
  <circle cx="747" cy="521" r="201" fill="none" stroke="#C8F04A" stroke-opacity="0.035" stroke-width="1"/>
  <circle cx="1173" cy="559" r="252" fill="none" stroke="#C8F04A" stroke-opacity="0.022" stroke-width="0.5"/>
</svg>