<svg xmlns="http://www.w3.org/2000/svg" width="1920" height="1080" viewBox="0 0 1920 1080">
  <defs>
    <radialGradient id="g1" cx="34.9%" cy="58.7%" r="40%">
      <stop offset="0%" stop-color="#C8F04A" stop-opacity="0.099"/>
      <stop offset="100%" stop-color="#0C0C0E" stop-opacity="0"/>
    </radialGradient>
    <radialGradient id="g2" cx="70.2%" cy="31.5%" r="35%">
      <stop offset="0%" stop-color="#C8F04A" stop-opacity="0.050"/>
      <stop offset="100%" stop-color="#0C0C0E" stop-opacity="0"/>
    </radialGradient>
  </defs>
  <rect width="1920" height="1080" fill="#0C0C0E"/>
  <rect width="1920" height="1080" fill="url(#g1)"/>
  <rect width="1920" height="1080" fill="url(#g2)"/>
  <line x1="0" y1="83" x2="1920" y2="83" stroke="#C8F04A" stroke-opacity="0.063" stroke-width="0.5"/><line x1="0" y1="137" x2="1920" y2="137" stroke="#C8F04A" stroke-opacity="0.063" stroke-width="0.5"/><line x1="0" y1="191" x2="1920" y2="191" stroke="#C8F04A" stroke-opacity="0.063" stroke-width="0.5"/><line x1="0" y1="245" x2="1920" y2="245" stroke="#C8F04A" stroke-opacity="0.063" stroke-width="0.5"/><line x1="0" y1="299" x2="1920" y2="299" stroke="#C8F04A" stroke-opacity="0.063" stroke-width="0.5"/><line x1="0" y1="353" x2="1920" y2="353" stroke="#C8F04A" stroke-opacity="0.063" stroke-width="0.5"/><line x1="0" y1="407" x2="1920" y2="407" stroke="#C8F04A" stroke-opacity="0.063" stroke-width="0.5"/><line x1="0" y1="461" x2="1920" y2="461" stroke="#C8F04A" stroke-opacity="0.063" stroke-width="0.5"/><line x1="0" y1="515" x2="1920" y2="515" stroke="#C8F04A" stroke-opacity="0.063" stroke-width="0.5"/><line x1="0" y1="569" x2="1920" y2="569" stroke="#C8F04A" stroke-opacity="0.063" stroke-width="0.5"/><line x1="0" y1="623" x2="1920" y2="623" stroke="#C8F04A" stroke-opacity="0.063" stroke-width="0.5"/><line x1="0" y1="677" x2="1920" y2="677" stroke="#C8F04A" stroke-opacity="0.063" stroke-width="0.5"/><line x1="0" y1="731" x2="1920" y2="731" stroke="#C8F04A" stroke-opacity="0.063" stroke-width="0.5"/><line x1="0" y1="785" x2="1920" y2="785" stroke="#C8F04A" stroke-opacity="0.063" stroke-width="0.5"/><line x1="0" y1="839" x2="1920" y2="839" stroke="#C8F04A" stroke-opacity="0.063" stroke-width="0.5"/><line x1="0" y1="893" x2="1920" y2="893" stroke="#C8F04A" stroke-opacity="0.063" stroke-width="0.5"/><line x1="0" y1="947" x2="1920" y2="947" stroke="#C8F04A" stroke-opacity="0.063" stroke-width="0.5"/><line x1="0" y1="1001" x2="1920" y2="1001" stroke="#C8F04A" stroke-opacity="0.063" stroke-width="0.5"/><line x1="0" y1="1055" x2="1920" y2="1055" stroke="#C8F04A" stroke-opacity="0.063" stroke-width="0.5"/><line x1="0" y1="1109" x2="1920" y2="1109" stroke="#C8F04A" stroke-opacity="0.063" stroke-width="0.5"/>
  <line x1="74" y1="0" x2="74" y2="1080" stroke="#C8F04A" stroke-opacity="0.038" stroke-width="0.5"/><line x1="202" y1="0" x2="202" y2="1080" stroke="#C8F04A" stroke-opacity="0.038" stroke-width="0.5"/><line x1="330" y1="0" x2="330" y2="1080" stroke="#C8F04A" stroke-opacity="0.038" stroke-width="0.5"/><line x1="458" y1="0" x2="458" y2="1080" stroke="#C8F04A" stroke-opacity="0.038" stroke-width="0.5"/><line x1="586" y1="0" x2="586" y2="1080" stroke="#C8F04A" stroke-opacity="0.038" stroke-width="0.5"/><line x1="714" y1="0" x2="714" y2="1080" stroke="#C8F04A" stroke-opacity="0.038" stroke-width="0.5"/><line x1="842" y1="0" x2="842" y2="1080" stroke="#C8F04A" stroke-opacity="0.038" stroke-width="0.5"/><line x1="970" y1="0" x2="970" y2="1080" stroke="#C8F04A" stroke-opacity="0.038" stroke-width="0.5"/><line x1="1098" y1="0" x2="1098" y2="1080" stroke="#C8F04A" stroke-opacity="0.038" stroke-width="0.5"/><line x1="1226" y1="0" x2="1226" y2="1080" stroke="#C8F04A" stroke-opacity="0.038" stroke-width="0.5"/><line x1="1354" y1="0" x2="1354" y2="1080" stroke="#C8F04A" stroke-opacity="0.038" stroke-width="0.5"/><line x1="1482" y1="0" x2="1482" y2="1080" stroke="#C8F04A" stroke-opacity="0.038" stroke-width="0.5"/><line x1="1610" y1="0" x2="1610" y2="1080" stroke="#C8F04A" stroke-opacity="0.038" stroke-width="0.5"/><line x1="1738" y1="0" x2="1738" y2="1080" stroke="#C8F04A" stroke-opacity="0.038" stroke-width="0.5"/><line x1="1866" y1="0" x2="1866" y2="1080" stroke="#C8F04A" stroke-opacity="0.038" stroke-width="0.5"/>
  <circle cx="1398" cy="819" r="181" fill="none" stroke="#C8F04A" stroke-opacity="0.079" stroke-width="1"/>
  <circle cx="522" cy="261" r="220" fill="none" stroke="#C8F04A" stroke-opacity="0.050" stroke-width="0.5"/>
</svg>