<svg xmlns="http://www.w3.org/2000/svg" width="1920" height="1080" viewBox="0 0 1920 1080">
  <defs>
    <radialGradient id="g1" cx="36.3%" cy="49.3%" r="40%">
      <stop offset="0%" stop-color="#C8F04A" stop-opacity="0.046"/>
      <stop offset="100%" stop-color="#0C0C0E" stop-opacity="0"/>
    </radialGradient>
    <radialGradient id="g2" cx="68.3%" cy="27.2%" r="35%">
      <stop offset="0%" stop-color="#C8F04A" stop-opacity="0.023"/>
      <stop offset="100%" stop-color="#0C0C0E" stop-opacity="0"/>
    </radialGradient>
  </defs>
  <rect width="1920" height="1080" fill="#0C0C0E"/>
  <rect width="1920" height="1080" fill="url(#g1)"/>
  <rect width="1920" height="1080" fill="url(#g2)"/>
  <line x1="0" y1="77" x2="1920" y2="77" stroke="#C8F04A" stroke-opacity="0.061" stroke-width="0.5"/><line x1="0" y1="131" x2="1920" y2="131" stroke="#C8F04A" stroke-opacity="0.061" stroke-width="0.5"/><line x1="0" y1="185" x2="1920" y2="185" stroke="#C8F04A" stroke-opacity="0.061" stroke-width="0.5"/><line x1="0" y1="239" x2="1920" y2="239" stroke="#C8F04A" stroke-opacity="0.061" stroke-width="0.5"/><line x1="0" y1="293" x2="1920" y2="293" stroke="#C8F04A" stroke-opacity="0.061" stroke-width="0.5"/><line x1="0" y1="347" x2="1920" y2="347" stroke="#C8F04A" stroke-opacity="0.061" stroke-width="0.5"/><line x1="0" y1="401" x2="1920" y2="401" stroke="#C8F04A" stroke-opacity="0.061" stroke-width="0.5"/><line x1="0" y1="455" x2="1920" y2="455" stroke="#C8F04A" stroke-opacity="0.061" stroke-width="0.5"/><line x1="0" y1="509" x2="1920" y2="509" stroke="#C8F04A" stroke-opacity="0.061" stroke-width="0.5"/><line x1="0" y1="563" x2="1920" y2="563" stroke="#C8F04A" stroke-opacity="0.061" stroke-width="0.5"/><line x1="0" y1="617" x2="1920" y2="617" stroke="#C8F04A" stroke-opacity="0.061" stroke-width="0.5"/><line x1="0" y1="671" x2="1920" y2="671" stroke="#C8F04A" stroke-opacity="0.061" stroke-width="0.5"/><line x1="0" y1="725" x2="1920" y2="725" stroke="#C8F04A" stroke-opacity="0.061" stroke-width="0.5"/><line x1="0" y1="779" x2="1920" y2="779" stroke="#C8F04A" stroke-opacity="0.061" stroke-width="0.5"/><line x1="0" y1="833" x2="1920" y2="833" stroke="#C8F04A" stroke-opacity="0.061" stroke-width="0.5"/><line x1="0" y1="887" x2="1920" y2="887" stroke="#C8F04A" stroke-opacity="0.061" stroke-width="0.5"/><line x1="0" y1="941" x2="1920" y2="941" stroke="#C8F04A" stroke-opacity="0.061" stroke-width="0.5"/><line x1="0" y1="995" x2="1920" y2="995" stroke="#C8F04A" stroke-opacity="0.061" stroke-width="0.5"/><line x1="0" y1="1049" x2="1920" y2="1049" stroke="#C8F04A" stroke-opacity="0.061" stroke-width="0.5"/><line x1="0" y1="1103" x2="1920" y2="1103" stroke="#C8F04A" stroke-opacity="0.061" stroke-width="0.5"/>
  <line x1="68" y1="0" x2="68" y2="1080" stroke="#C8F04A" stroke-opacity="0.037" stroke-width="0.5"/><line x1="196" y1="0" x2="196" y2="1080" stroke="#C8F04A" stroke-opacity="0.037" stroke-width="0.5"/><line x1="324" y1="0" x2="324" y2="1080" stroke="#C8F04A" stroke-opacity="0.037" stroke-width="0.5"/><line x1="452" y1="0" x2="452" y2="1080" stroke="#C8F04A" stroke-opacity="0.037" stroke-width="0.5"/><line x1="580" y1="0" x2="580" y2="1080" stroke="#C8F04A" stroke-opacity="0.037" stroke-width="0.5"/><line x1="708" y1="0" x2="708" y2="1080" stroke="#C8F04A" stroke-opacity="0.037" stroke-width="0.5"/><line x1="836" y1="0" x2="836" y2="1080" stroke="#C8F04A" stroke-opacity="0.037" stroke-width="0.5"/><line x1="964" y1="0" x2="964" y2="1080" stroke="#C8F04A" stroke-opacity="0.037" stroke-width="0.5"/><line x1="1092" y1="0" x2="1092" y2="1080" stroke="#C8F04A" stroke-opacity="0.037" stroke-width="0.5"/><line x1="1220" y1="0" x2="1220" y2="1080" stroke="#C8F04A" stroke-opacity="0.037" stroke-width="0.5"/><line x1="1348" y1="0" x2="1348" y2="1080" stroke="#C8F04A" stroke-opacity="0.037" stroke-width="0.5"/><line x1="1476" y1="0" x2="1476" y2="1080" stroke="#C8F04A" stroke-opacity="0.037" stroke-width="0.5"/><line x1="1604" y1="0" x2="1604" y2="1080" stroke="#C8F04A" stroke-opacity="0.037" stroke-width="0.5"/><line x1="1732" y1="0" x2="1732" y2="1080" stroke="#C8F04A" stroke-opacity="0.037" stroke-width="0.5"/><line x1="1860" y1="0" x2="1860" y2="1080" stroke="#C8F04A" stroke-opacity="0.037" stroke-width="0.5"/>
  <circle cx="1228" cy="759" r="131" fill="none" stroke="#C8F04A" stroke-opacity="0.037" stroke-width="1"/>
  <circle cx="692" cy="321" r="266" fill="none" stroke="#C8F04A" stroke-opacity="0.023" stroke-width="0.5"/>
</svg>