<svg xmlns="http://www.w3.org/2000/svg" width="1920" height="1080" viewBox="0 0 1920 1080">
  <defs>
    <radialGradient id="g1" cx="51.0%" cy="66.1%" r="40%">
      <stop offset="0%" stop-color="#C8F04A" stop-opacity="0.085"/>
      <stop offset="100%" stop-color="#0C0C0E" stop-opacity="0"/>
    </radialGradient>
    <radialGradient id="g2" cx="48.7%" cy="60.7%" r="35%">
      <stop offset="0%" stop-color="#C8F04A" stop-opacity="0.043"/>
      <stop offset="100%" stop-color="#0C0C0E" stop-opacity="0"/>
    </radialGradient>
  </defs>
  <rect width="1920" height="1080" fill="#0C0C0E"/>
  <rect width="1920" height="1080" fill="url(#g1)"/>
  <rect width="1920" height="1080" fill="url(#g2)"/>
  <line x1="0" y1="13" x2="1920" y2="13" stroke="#C8F04A" stroke-opacity="0.044" stroke-width="0.5"/><line x1="0" y1="67" x2="1920" y2="67" stroke="#C8F04A" stroke-opacity="0.044" stroke-width="0.5"/><line x1="0" y1="121" x2="1920" y2="121" stroke="#C8F04A" stroke-opacity="0.044" stroke-width="0.5"/><line x1="0" y1="175" x2="1920" y2="175" stroke="#C8F04A" stroke-opacity="0.044" stroke-width="0.5"/><line x1="0" y1="229" x2="1920" y2="229" stroke="#C8F04A" stroke-opacity="0.044" stroke-width="0.5"/><line x1="0" y1="283" x2="1920" y2="283" stroke="#C8F04A" stroke-opacity="0.044" stroke-width="0.5"/><line x1="0" y1="337" x2="1920" y2="337" stroke="#C8F04A" stroke-opacity="0.044" stroke-width="0.5"/><line x1="0" y1="391" x2="1920" y2="391" stroke="#C8F04A" stroke-opacity="0.044" stroke-width="0.5"/><line x1="0" y1="445" x2="1920" y2="445" stroke="#C8F04A" stroke-opacity="0.044" stroke-width="0.5"/><line x1="0" y1="499" x2="1920" y2="499" stroke="#C8F04A" stroke-opacity="0.044" stroke-width="0.5"/><line x1="0" y1="553" x2="1920" y2="553" stroke="#C8F04A" stroke-opacity="0.044" stroke-width="0.5"/><line x1="0" y1="607" x2="1920" y2="607" stroke="#C8F04A" stroke-opacity="0.044" stroke-width="0.5"/><line x1="0" y1="661" x2="1920" y2="661" stroke="#C8F04A" stroke-opacity="0.044" stroke-width="0.5"/><line x1="0" y1="715" x2="1920" y2="715" stroke="#C8F04A" stroke-opacity="0.044" stroke-width="0.5"/><line x1="0" y1="769" x2="1920" y2="769" stroke="#C8F04A" stroke-opacity="0.044" stroke-width="0.5"/><line x1="0" y1="823" x2="1920" y2="823" stroke="#C8F04A" stroke-opacity="0.044" stroke-width="0.5"/><line x1="0" y1="877" x2="1920" y2="877" stroke="#C8F04A" stroke-opacity="0.044" stroke-width="0.5"/><line x1="0" y1="931" x2="1920" y2="931" stroke="#C8F04A" stroke-opacity="0.044" stroke-width="0.5"/><line x1="0" y1="985" x2="1920" y2="985" stroke="#C8F04A" stroke-opacity="0.044" stroke-width="0.5"/><line x1="0" y1="1039" x2="1920" y2="1039" stroke="#C8F04A" stroke-opacity="0.044" stroke-width="0.5"/>
  <line x1="12" y1="0" x2="12" y2="1080" stroke="#C8F04A" stroke-opacity="0.026" stroke-width="0.5"/><line x1="140" y1="0" x2="140" y2="1080" stroke="#C8F04A" stroke-opacity="0.026" stroke-width="0.5"/><line x1="268" y1="0" x2="268" y2="1080" stroke="#C8F04A" stroke-opacity="0.026" stroke-width="0.5"/><line x1="396" y1="0" x2="396" y2="1080" stroke="#C8F04A" stroke-opacity="0.026" stroke-width="0.5"/><line x1="524" y1="0" x2="524" y2="1080" stroke="#C8F04A" stroke-opacity="0.026" stroke-width="0.5"/><line x1="652" y1="0" x2="652" y2="1080" stroke="#C8F04A" stroke-opacity="0.026" stroke-width="0.5"/><line x1="780" y1="0" x2="780" y2="1080" stroke="#C8F04A" stroke-opacity="0.026" stroke-width="0.5"/><line x1="908" y1="0" x2="908" y2="1080" stroke="#C8F04A" stroke-opacity="0.026" stroke-width="0.5"/><line x1="1036" y1="0" x2="1036" y2="1080" stroke="#C8F04A" stroke-opacity="0.026" stroke-width="0.5"/><line x1="1164" y1="0" x2="1164" y2="1080" stroke="#C8F04A" stroke-opacity="0.026" stroke-width="0.5"/><line x1="1292" y1="0" x2="1292" y2="1080" stroke="#C8F04A" stroke-opacity="0.026" stroke-width="0.5"/><line x1="1420" y1="0" x2="1420" y2="1080" stroke="#C8F04A" stroke-opacity="0.026" stroke-width="0.5"/><line x1="1548" y1="0" x2="1548" y2="1080" stroke="#C8F04A" stroke-opacity="0.026" stroke-width="0.5"/><line x1="1676" y1="0" x2="1676" y2="1080" stroke="#C8F04A" stroke-opacity="0.026" stroke-width="0.5"/><line x1="1804" y1="0" x2="1804" y2="1080" stroke="#C8F04A" stroke-opacity="0.026" stroke-width="0.5"/>
  <circle cx="464" cy="771" r="236" fill="none" stroke="#C8F04A" stroke-opacity="0.068" stroke-width="1"/>
  <circle cx="1456" cy="309" r="297" fill="none" stroke="#C8F04A" stroke-opacity="0.043" stroke-width="0.5"/>
</svg>