<svg xmlns="http://www.w3.org/2000/svg" width="1920" height="1080" viewBox="0 0 1920 1080">
  <defs>
    <radialGradient id="g1" cx="65.5%" cy="51.6%" r="40%">
      <stop offset="0%" stop-color="#C8F04A" stop-opacity="0.090"/>
      <stop offset="100%" stop-color="#0C0C0E" stop-opacity="0"/>
    </radialGradient>
    <radialGradient id="g2" cx="29.3%" cy="71.0%" r="35%">
      <stop offset="0%" stop-color="#C8F04A" stop-opacity="0.045"/>
      <stop offset="100%" stop-color="#0C0C0E" stop-opacity="0"/>
    </radialGradient>
  </defs>
  <rect width="1920" height="1080" fill="#0C0C0E"/>
  <rect width="1920" height="1080" fill="url(#g1)"/>
  <rect width="1920" height="1080" fill="url(#g2)"/>
  <line x1="0" y1="1" x2="1920" y2="1" stroke="#C8F04A" stroke-opacity="0.040" stroke-width="0.5"/><line x1="0" y1="55" x2="1920" y2="55" stroke="#C8F04A" stroke-opacity="0.040" stroke-width="0.5"/><line x1="0" y1="109" x2="1920" y2="109" stroke="#C8F04A" stroke-opacity="0.040" stroke-width="0.5"/><line x1="0" y1="163" x2="1920" y2="163" stroke="#C8F04A" stroke-opacity="0.040" stroke-width="0.5"/><line x1="0" y1="217" x2="1920" y2="217" stroke="#C8F04A" stroke-opacity="0.040" stroke-width="0.5"/><line x1="0" y1="271" x2="1920" y2="271" stroke="#C8F04A" stroke-opacity="0.040" stroke-width="0.5"/><line x1="0" y1="325" x2="1920" y2="325" stroke="#C8F04A" stroke-opacity="0.040" stroke-width="0.5"/><line x1="0" y1="379" x2="1920" y2="379" stroke="#C8F04A" stroke-opacity="0.040" stroke-width="0.5"/><line x1="0" y1="433" x2="1920" y2="433" stroke="#C8F04A" stroke-opacity="0.040" stroke-width="0.5"/><line x1="0" y1="487" x2="1920" y2="487" stroke="#C8F04A" stroke-opacity="0.040" stroke-width="0.5"/><line x1="0" y1="541" x2="1920" y2="541" stroke="#C8F04A" stroke-opacity="0.040" stroke-width="0.5"/><line x1="0" y1="595" x2="1920" y2="595" stroke="#C8F04A" stroke-opacity="0.040" stroke-width="0.5"/><line x1="0" y1="649" x2="1920" y2="649" stroke="#C8F04A" stroke-opacity="0.040" stroke-width="0.5"/><line x1="0" y1="703" x2="1920" y2="703" stroke="#C8F04A" stroke-opacity="0.040" stroke-width="0.5"/><line x1="0" y1="757" x2="1920" y2="757" stroke="#C8F04A" stroke-opacity="0.040" stroke-width="0.5"/><line x1="0" y1="811" x2="1920" y2="811" stroke="#C8F04A" stroke-opacity="0.040" stroke-width="0.5"/><line x1="0" y1="865" x2="1920" y2="865" stroke="#C8F04A" stroke-opacity="0.040" stroke-width="0.5"/><line x1="0" y1="919" x2="1920" y2="919" stroke="#C8F04A" stroke-opacity="0.040" stroke-width="0.5"/><line x1="0" y1="973" x2="1920" y2="973" stroke="#C8F04A" stroke-opacity="0.040" stroke-width="0.5"/><line x1="0" y1="1027" x2="1920" y2="1027" stroke="#C8F04A" stroke-opacity="0.040" stroke-width="0.5"/>
  <line x1="1" y1="0" x2="1" y2="1080" stroke="#C8F04A" stroke-opacity="0.024" stroke-width="0.5"/><line x1="129" y1="0" x2="129" y2="1080" stroke="#C8F04A" stroke-opacity="0.024" stroke-width="0.5"/><line x1="257" y1="0" x2="257" y2="1080" stroke="#C8F04A" stroke-opacity="0.024" stroke-width="0.5"/><line x1="385" y1="0" x2="385" y2="1080" stroke="#C8F04A" stroke-opacity="0.024" stroke-width="0.5"/><line x1="513" y1="0" x2="513" y2="1080" stroke="#C8F04A" stroke-opacity="0.024" stroke-width="0.5"/><line x1="641" y1="0" x2="641" y2="1080" stroke="#C8F04A" stroke-opacity="0.024" stroke-width="0.5"/><line x1="769" y1="0" x2="769" y2="1080" stroke="#C8F04A" stroke-opacity="0.024" stroke-width="0.5"/><line x1="897" y1="0" x2="897" y2="1080" stroke="#C8F04A" stroke-opacity="0.024" stroke-width="0.5"/><line x1="1025" y1="0" x2="1025" y2="1080" stroke="#C8F04A" stroke-opacity="0.024" stroke-width="0.5"/><line x1="1153" y1="0" x2="1153" y2="1080" stroke="#C8F04A" stroke-opacity="0.024" stroke-width="0.5"/><line x1="1281" y1="0" x2="1281" y2="1080" stroke="#C8F04A" stroke-opacity="0.024" stroke-width="0.5"/><line x1="1409" y1="0" x2="1409" y2="1080" stroke="#C8F04A" stroke-opacity="0.024" stroke-width="0.5"/><line x1="1537" y1="0" x2="1537" y2="1080" stroke="#C8F04A" stroke-opacity="0.024" stroke-width="0.5"/><line x1="1665" y1="0" x2="1665" y2="1080" stroke="#C8F04A" stroke-opacity="0.024" stroke-width="0.5"/><line x1="1793" y1="0" x2="1793" y2="1080" stroke="#C8F04A" stroke-opacity="0.024" stroke-width="0.5"/>
  <circle cx="1444" cy="596" r="190" fill="none" stroke="#C8F04A" stroke-opacity="0.072" stroke-width="1"/>
  <circle cx="476" cy="484" r="359" fill="none" stroke="#C8F04A" stroke-opacity="0.045" stroke-width="0.5"/>
</svg>