<svg xmlns="http://www.w3.org/2000/svg" width="1920" height="1080" viewBox="0 0 1920 1080">
  <defs>
    <radialGradient id="g1" cx="47.1%" cy="67.8%" r="40%">
      <stop offset="0%" stop-color="#C8F04A" stop-opacity="0.095"/>
      <stop offset="100%" stop-color="#0C0C0E" stop-opacity="0"/>
    </radialGradient>
    <radialGradient id="g2" cx="53.9%" cy="57.3%" r="35%">
      <stop offset="0%" stop-color="#C8F04A" stop-opacity="0.047"/>
      <stop offset="100%" stop-color="#0C0C0E" stop-opacity="0"/>
    </radialGradient>
  </defs>
  <rect width="1920" height="1080" fill="#0C0C0E"/>
  <rect width="1920" height="1080" fill="url(#g1)"/>
  <rect width="1920" height="1080" fill="url(#g2)"/>
  <line x1="0" y1="93" x2="1920" y2="93" stroke="#C8F04A" stroke-opacity="0.066" stroke-width="0.5"/><line x1="0" y1="147" x2="1920" y2="147" stroke="#C8F04A" stroke-opacity="0.066" stroke-width="0.5"/><line x1="0" y1="201" x2="1920" y2="201" stroke="#C8F04A" stroke-opacity="0.066" stroke-width="0.5"/><line x1="0" y1="255" x2="1920" y2="255" stroke="#C8F04A" stroke-opacity="0.066" stroke-width="0.5"/><line x1="0" y1="309" x2="1920" y2="309" stroke="#C8F04A" stroke-opacity="0.066" stroke-width="0.5"/><line x1="0" y1="363" x2="1920" y2="363" stroke="#C8F04A" stroke-opacity="0.066" stroke-width="0.5"/><line x1="0" y1="417" x2="1920" y2="417" stroke="#C8F04A" stroke-opacity="0.066" stroke-width="0.5"/><line x1="0" y1="471" x2="1920" y2="471" stroke="#C8F04A" stroke-opacity="0.066" stroke-width="0.5"/><line x1="0" y1="525" x2="1920" y2="525" stroke="#C8F04A" stroke-opacity="0.066" stroke-width="0.5"/><line x1="0" y1="579" x2="1920" y2="579" stroke="#C8F04A" stroke-opacity="0.066" stroke-width="0.5"/><line x1="0" y1="633" x2="1920" y2="633" stroke="#C8F04A" stroke-opacity="0.066" stroke-width="0.5"/><line x1="0" y1="687" x2="1920" y2="687" stroke="#C8F04A" stroke-opacity="0.066" stroke-width="0.5"/><line x1="0" y1="741" x2="1920" y2="741" stroke="#C8F04A" stroke-opacity="0.066" stroke-width="0.5"/><line x1="0" y1="795" x2="1920" y2="795" stroke="#C8F04A" stroke-opacity="0.066" stroke-width="0.5"/><line x1="0" y1="849" x2="1920" y2="849" stroke="#C8F04A" stroke-opacity="0.066" stroke-width="0.5"/><line x1="0" y1="903" x2="1920" y2="903" stroke="#C8F04A" stroke-opacity="0.066" stroke-width="0.5"/><line x1="0" y1="957" x2="1920" y2="957" stroke="#C8F04A" stroke-opacity="0.066" stroke-width="0.5"/><line x1="0" y1="1011" x2="1920" y2="1011" stroke="#C8F04A" stroke-opacity="0.066" stroke-width="0.5"/><line x1="0" y1="1065" x2="1920" y2="1065" stroke="#C8F04A" stroke-opacity="0.066" stroke-width="0.5"/><line x1="0" y1="1119" x2="1920" y2="1119" stroke="#C8F04A" stroke-opacity="0.066" stroke-width="0.5"/>
  <line x1="83" y1="0" x2="83" y2="1080" stroke="#C8F04A" stroke-opacity="0.039" stroke-width="0.5"/><line x1="211" y1="0" x2="211" y2="1080" stroke="#C8F04A" stroke-opacity="0.039" stroke-width="0.5"/><line x1="339" y1="0" x2="339" y2="1080" stroke="#C8F04A" stroke-opacity="0.039" stroke-width="0.5"/><line x1="467" y1="0" x2="467" y2="1080" stroke="#C8F04A" stroke-opacity="0.039" stroke-width="0.5"/><line x1="595" y1="0" x2="595" y2="1080" stroke="#C8F04A" stroke-opacity="0.039" stroke-width="0.5"/><line x1="723" y1="0" x2="723" y2="1080" stroke="#C8F04A" stroke-opacity="0.039" stroke-width="0.5"/><line x1="851" y1="0" x2="851" y2="1080" stroke="#C8F04A" stroke-opacity="0.039" stroke-width="0.5"/><line x1="979" y1="0" x2="979" y2="1080" stroke="#C8F04A" stroke-opacity="0.039" stroke-width="0.5"/><line x1="1107" y1="0" x2="1107" y2="1080" stroke="#C8F04A" stroke-opacity="0.039" stroke-width="0.5"/><line x1="1235" y1="0" x2="1235" y2="1080" stroke="#C8F04A" stroke-opacity="0.039" stroke-width="0.5"/><line x1="1363" y1="0" x2="1363" y2="1080" stroke="#C8F04A" stroke-opacity="0.039" stroke-width="0.5"/><line x1="1491" y1="0" x2="1491" y2="1080" stroke="#C8F04A" stroke-opacity="0.039" stroke-width="0.5"/><line x1="1619" y1="0" x2="1619" y2="1080" stroke="#C8F04A" stroke-opacity="0.039" stroke-width="0.5"/><line x1="1747" y1="0" x2="1747" y2="1080" stroke="#C8F04A" stroke-opacity="0.039" stroke-width="0.5"/><line x1="1875" y1="0" x2="1875" y2="1080" stroke="#C8F04A" stroke-opacity="0.039" stroke-width="0.5"/>
  <circle cx="495" cy="395" r="240" fill="none" stroke="#C8F04A" stroke-opacity="0.076" stroke-width="1"/>
  <circle cx="1425" cy="685" r="204" fill="none" stroke="#C8F04A" stroke-opacity="0.047" stroke-width="0.5"/>
</svg>