<svg xmlns="http://www.w3.org/2000/svg" width="1920" height="1080" viewBox="0 0 1920 1080">
  <defs>
    <radialGradient id="g1" cx="54.8%" cy="34.4%" r="40%">
      <stop offset="0%" stop-color="#C8F04A" stop-opacity="0.104"/>
      <stop offset="100%" stop-color="#0C0C0E" stop-opacity="0"/>
    </radialGradient>
    <radialGradient id="g2" cx="43.6%" cy="53.0%" r="35%">
      <stop offset="0%" stop-color="#C8F04A" stop-opacity="0.052"/>
      <stop offset="100%" stop-color="#0C0C0E" stop-opacity="0"/>
    </radialGradient>
  </defs>
  <rect width="1920" height="1080" fill="#0C0C0E"/>
  <rect width="1920" height="1080" fill="url(#g1)"/>
  <rect width="1920" height="1080" fill="url(#g2)"/>
  <line x1="0" y1="65" x2="1920" y2="65" stroke="#C8F04A" stroke-opacity="0.058" stroke-width="0.5"/><line x1="0" y1="119" x2="1920" y2="119" stroke="#C8F04A" stroke-opacity="0.058" stroke-width="0.5"/><line x1="0" y1="173" x2="1920" y2="173" stroke="#C8F04A" stroke-opacity="0.058" stroke-width="0.5"/><line x1="0" y1="227" x2="1920" y2="227" stroke="#C8F04A" stroke-opacity="0.058" stroke-width="0.5"/><line x1="0" y1="281" x2="1920" y2="281" stroke="#C8F04A" stroke-opacity="0.058" stroke-width="0.5"/><line x1="0" y1="335" x2="1920" y2="335" stroke="#C8F04A" stroke-opacity="0.058" stroke-width="0.5"/><line x1="0" y1="389" x2="1920" y2="389" stroke="#C8F04A" stroke-opacity="0.058" stroke-width="0.5"/><line x1="0" y1="443" x2="1920" y2="443" stroke="#C8F04A" stroke-opacity="0.058" stroke-width="0.5"/><line x1="0" y1="497" x2="1920" y2="497" stroke="#C8F04A" stroke-opacity="0.058" stroke-width="0.5"/><line x1="0" y1="551" x2="1920" y2="551" stroke="#C8F04A" stroke-opacity="0.058" stroke-width="0.5"/><line x1="0" y1="605" x2="1920" y2="605" stroke="#C8F04A" stroke-opacity="0.058" stroke-width="0.5"/><line x1="0" y1="659" x2="1920" y2="659" stroke="#C8F04A" stroke-opacity="0.058" stroke-width="0.5"/><line x1="0" y1="713" x2="1920" y2="713" stroke="#C8F04A" stroke-opacity="0.058" stroke-width="0.5"/><line x1="0" y1="767" x2="1920" y2="767" stroke="#C8F04A" stroke-opacity="0.058" stroke-width="0.5"/><line x1="0" y1="821" x2="1920" y2="821" stroke="#C8F04A" stroke-opacity="0.058" stroke-width="0.5"/><line x1="0" y1="875" x2="1920" y2="875" stroke="#C8F04A" stroke-opacity="0.058" stroke-width="0.5"/><line x1="0" y1="929" x2="1920" y2="929" stroke="#C8F04A" stroke-opacity="0.058" stroke-width="0.5"/><line x1="0" y1="983" x2="1920" y2="983" stroke="#C8F04A" stroke-opacity="0.058" stroke-width="0.5"/><line x1="0" y1="1037" x2="1920" y2="1037" stroke="#C8F04A" stroke-opacity="0.058" stroke-width="0.5"/><line x1="0" y1="1091" x2="1920" y2="1091" stroke="#C8F04A" stroke-opacity="0.058" stroke-width="0.5"/>
  <line x1="58" y1="0" x2="58" y2="1080" stroke="#C8F04A" stroke-opacity="0.035" stroke-width="0.5"/><line x1="186" y1="0" x2="186" y2="1080" stroke="#C8F04A" stroke-opacity="0.035" stroke-width="0.5"/><line x1="314" y1="0" x2="314" y2="1080" stroke="#C8F04A" stroke-opacity="0.035" stroke-width="0.5"/><line x1="442" y1="0" x2="442" y2="1080" stroke="#C8F04A" stroke-opacity="0.035" stroke-width="0.5"/><line x1="570" y1="0" x2="570" y2="1080" stroke="#C8F04A" stroke-opacity="0.035" stroke-width="0.5"/><line x1="698" y1="0" x2="698" y2="1080" stroke="#C8F04A" stroke-opacity="0.035" stroke-width="0.5"/><line x1="826" y1="0" x2="826" y2="1080" stroke="#C8F04A" stroke-opacity="0.035" stroke-width="0.5"/><line x1="954" y1="0" x2="954" y2="1080" stroke="#C8F04A" stroke-opacity="0.035" stroke-width="0.5"/><line x1="1082" y1="0" x2="1082" y2="1080" stroke="#C8F04A" stroke-opacity="0.035" stroke-width="0.5"/><line x1="1210" y1="0" x2="1210" y2="1080" stroke="#C8F04A" stroke-opacity="0.035" stroke-width="0.5"/><line x1="1338" y1="0" x2="1338" y2="1080" stroke="#C8F04A" stroke-opacity="0.035" stroke-width="0.5"/><line x1="1466" y1="0" x2="1466" y2="1080" stroke="#C8F04A" stroke-opacity="0.035" stroke-width="0.5"/><line x1="1594" y1="0" x2="1594" y2="1080" stroke="#C8F04A" stroke-opacity="0.035" stroke-width="0.5"/><line x1="1722" y1="0" x2="1722" y2="1080" stroke="#C8F04A" stroke-opacity="0.035" stroke-width="0.5"/><line x1="1850" y1="0" x2="1850" y2="1080" stroke="#C8F04A" stroke-opacity="0.035" stroke-width="0.5"/>
  <circle cx="555" cy="255" r="158" fill="none" stroke="#C8F04A" stroke-opacity="0.083" stroke-width="1"/>
  <circle cx="1365" cy="825" r="350" fill="none" stroke="#C8F04A" stroke-opacity="0.052" stroke-width="0.5"/>
</svg>