<svg xmlns="http://www.w3.org/2000/svg" width="1920" height="1080" viewBox="0 0 1920 1080">
  <defs>
    <radialGradient id="g1" cx="45.2%" cy="67.2%" r="40%">
      <stop offset="0%" stop-color="#C8F04A" stop-opacity="0.104"/>
      <stop offset="100%" stop-color="#0C0C0E" stop-opacity="0"/>
    </radialGradient>
    <radialGradient id="g2" cx="56.4%" cy="54.2%" r="35%">
      <stop offset="0%" stop-color="#C8F04A" stop-opacity="0.052"/>
      <stop offset="100%" stop-color="#0C0C0E" stop-opacity="0"/>
    </radialGradient>
  </defs>
  <rect width="1920" height="1080" fill="#0C0C0E"/>
  <rect width="1920" height="1080" fill="url(#g1)"/>
  <rect width="1920" height="1080" fill="url(#g2)"/>
  <line x1="0" y1="92" x2="1920" y2="92" stroke="#C8F04A" stroke-opacity="0.066" stroke-width="0.5"/><line x1="0" y1="146" x2="1920" y2="146" stroke="#C8F04A" stroke-opacity="0.066" stroke-width="0.5"/><line x1="0" y1="200" x2="1920" y2="200" stroke="#C8F04A" stroke-opacity="0.066" stroke-width="0.5"/><line x1="0" y1="254" x2="1920" y2="254" stroke="#C8F04A" stroke-opacity="0.066" stroke-width="0.5"/><line x1="0" y1="308" x2="1920" y2="308" stroke="#C8F04A" stroke-opacity="0.066" stroke-width="0.5"/><line x1="0" y1="362" x2="1920" y2="362" stroke="#C8F04A" stroke-opacity="0.066" stroke-width="0.5"/><line x1="0" y1="416" x2="1920" y2="416" stroke="#C8F04A" stroke-opacity="0.066" stroke-width="0.5"/><line x1="0" y1="470" x2="1920" y2="470" stroke="#C8F04A" stroke-opacity="0.066" stroke-width="0.5"/><line x1="0" y1="524" x2="1920" y2="524" stroke="#C8F04A" stroke-opacity="0.066" stroke-width="0.5"/><line x1="0" y1="578" x2="1920" y2="578" stroke="#C8F04A" stroke-opacity="0.066" stroke-width="0.5"/><line x1="0" y1="632" x2="1920" y2="632" stroke="#C8F04A" stroke-opacity="0.066" stroke-width="0.5"/><line x1="0" y1="686" x2="1920" y2="686" stroke="#C8F04A" stroke-opacity="0.066" stroke-width="0.5"/><line x1="0" y1="740" x2="1920" y2="740" stroke="#C8F04A" stroke-opacity="0.066" stroke-width="0.5"/><line x1="0" y1="794" x2="1920" y2="794" stroke="#C8F04A" stroke-opacity="0.066" stroke-width="0.5"/><line x1="0" y1="848" x2="1920" y2="848" stroke="#C8F04A" stroke-opacity="0.066" stroke-width="0.5"/><line x1="0" y1="902" x2="1920" y2="902" stroke="#C8F04A" stroke-opacity="0.066" stroke-width="0.5"/><line x1="0" y1="956" x2="1920" y2="956" stroke="#C8F04A" stroke-opacity="0.066" stroke-width="0.5"/><line x1="0" y1="1010" x2="1920" y2="1010" stroke="#C8F04A" stroke-opacity="0.066" stroke-width="0.5"/><line x1="0" y1="1064" x2="1920" y2="1064" stroke="#C8F04A" stroke-opacity="0.066" stroke-width="0.5"/><line x1="0" y1="1118" x2="1920" y2="1118" stroke="#C8F04A" stroke-opacity="0.066" stroke-width="0.5"/>
  <line x1="82" y1="0" x2="82" y2="1080" stroke="#C8F04A" stroke-opacity="0.039" stroke-width="0.5"/><line x1="210" y1="0" x2="210" y2="1080" stroke="#C8F04A" stroke-opacity="0.039" stroke-width="0.5"/><line x1="338" y1="0" x2="338" y2="1080" stroke="#C8F04A" stroke-opacity="0.039" stroke-width="0.5"/><line x1="466" y1="0" x2="466" y2="1080" stroke="#C8F04A" stroke-opacity="0.039" stroke-width="0.5"/><line x1="594" y1="0" x2="594" y2="1080" stroke="#C8F04A" stroke-opacity="0.039" stroke-width="0.5"/><line x1="722" y1="0" x2="722" y2="1080" stroke="#C8F04A" stroke-opacity="0.039" stroke-width="0.5"/><line x1="850" y1="0" x2="850" y2="1080" stroke="#C8F04A" stroke-opacity="0.039" stroke-width="0.5"/><line x1="978" y1="0" x2="978" y2="1080" stroke="#C8F04A" stroke-opacity="0.039" stroke-width="0.5"/><line x1="1106" y1="0" x2="1106" y2="1080" stroke="#C8F04A" stroke-opacity="0.039" stroke-width="0.5"/><line x1="1234" y1="0" x2="1234" y2="1080" stroke="#C8F04A" stroke-opacity="0.039" stroke-width="0.5"/><line x1="1362" y1="0" x2="1362" y2="1080" stroke="#C8F04A" stroke-opacity="0.039" stroke-width="0.5"/><line x1="1490" y1="0" x2="1490" y2="1080" stroke="#C8F04A" stroke-opacity="0.039" stroke-width="0.5"/><line x1="1618" y1="0" x2="1618" y2="1080" stroke="#C8F04A" stroke-opacity="0.039" stroke-width="0.5"/><line x1="1746" y1="0" x2="1746" y2="1080" stroke="#C8F04A" stroke-opacity="0.039" stroke-width="0.5"/><line x1="1874" y1="0" x2="1874" y2="1080" stroke="#C8F04A" stroke-opacity="0.039" stroke-width="0.5"/>
  <circle cx="555" cy="447" r="238" fill="none" stroke="#C8F04A" stroke-opacity="0.083" stroke-width="1"/>
  <circle cx="1365" cy="633" r="201" fill="none" stroke="#C8F04A" stroke-opacity="0.052" stroke-width="0.5"/>
</svg>